Genre:Animation | Adventure | Comedy | Family | Fantasy
Language:English
IMDb:http://www.imdb.com/title/tt0435761/
Source Video:dvdscr.rus 
Source Audio:prism
Sample:yes
Subtitles: ROMANA

General
Complete name :Toy.Story.3.2010.DVDSCR.XVID.FEEL-FREE
Format : AVI
Format/Info : Audio Video Interleave
File size : 1.26 GiB
Duration : 1h 41mn
Overall bit rate : 1 771 Kbps
Video #0
ID : 0
Format : MPEG-4 Visual
Format profile : Simple@L3
Format settings, BVOP : Yes
Format settings, Matrix : Default (H.263)
Codec ID : XVID
Codec ID/Hint : XviD
Duration : 1h 41mn
Bit rate : 1 501 Kbps
Width : 720 pixels
Height : 304 pixels
Display aspect ratio : 2.35:1
Frame rate : 29.970 fps
Resolution : 24 bits
Scan type : Progressive
Bits/(Pixel*Frame) : 0.229
Stream size : 1.07 GiB (85%)
Audio #1
ID : 1
Format : MPEG Audio
Format version : Version 1
Format profile : Layer 3
Codec ID : 55
Codec ID/Hint : MP3
Duration : 1h 41mn
Bit rate mode : Constant
Bit rate : 256 Kbps
Channel(s) : 2 channels
Sampling rate : 48.0 KHz
Resolution : 16 bits
Stream size : 186 MiB (14%)
Alignment : Aligned on interleaves
Interleave, duration : 24 ms (0.72 video frame)
Writing library : LAME3.97
Plot:
Woody, Buzz, and the rest of their toy-box friends are dumped in a day-care center after their owner, Andy, departs for college.